<?xml version="1.0" encoding="UTF-8" standalone="no"?>
<!DOCTYPE svg PUBLIC "-//W3C//DTD SVG 1.1//EN" "http://www.w3.org/Graphics/SVG/1.1/DTD/svg11.dtd">
<!-- Generado por Microsoft Visio, SVG Export Figura2.svg Página-1 -->
<svg xmlns="http://www.w3.org/2000/svg" xmlns:xlink="http://www.w3.org/1999/xlink" xmlns:ev="http://www.w3.org/2001/xml-events"
		xmlns:v="http://schemas.microsoft.com/visio/2003/SVGExtensions/" width="7.58223in" height="3.63212in"
		viewBox="0 0 545.92 261.513" xml:space="preserve" color-interpolation-filters="sRGB" class="st18">
	<v:documentProperties v:langID="3082" v:metric="true" v:viewMarkup="false"/>

	<style type="text/css">
	<![CDATA[
		.st1 {fill:#8c8886;stroke:#ffffff;stroke-linecap:round;stroke-linejoin:round;stroke-width:0.999999}
		.st2 {fill:#ffffff;font-family:Calibri;font-size:0.833336em}
		.st3 {fill:#f0a282;stroke:#ffffff;stroke-linecap:round;stroke-linejoin:round;stroke-width:0.999999}
		.st4 {font-size:0.799995em;font-style:italic}
		.st5 {fill:#ffffff;font-family:Calibri;font-size:0.666664em}
		.st6 {fill:#91b5de;stroke:#ffffff;stroke-linecap:round;stroke-linejoin:round;stroke-width:0.999999}
		.st7 {fill:#9bc189;stroke:#ffffff;stroke-linecap:round;stroke-linejoin:round;stroke-width:0.999999}
		.st8 {fill:#ff7c80;stroke:#ff7c80;stroke-linecap:round;stroke-linejoin:round;stroke-width:2}
		.st9 {fill:#ffce7b;stroke:#ffffff;stroke-linecap:round;stroke-linejoin:round;stroke-width:0.999999}
		.st10 {fill:#c4a9cd;stroke:#c4a9cd;stroke-linecap:round;stroke-linejoin:round;stroke-width:2}
		.st11 {fill:none}
		.st12 {stroke:#a5a5a5;stroke-dasharray:10.5,7.49999;stroke-linecap:round;stroke-linejoin:round;stroke-width:1.5}
		.st13 {fill:none;stroke:none;stroke-linecap:round;stroke-linejoin:round;stroke-width:2}
		.st14 {fill:#5c5c5c;font-family:Calibri;font-size:0.833336em}
		.st15 {fill:#889cd1;stroke:#ffffff;stroke-linecap:round;stroke-linejoin:round;stroke-width:0.999999}
		.st16 {fill:#c4a9cd;stroke:#ffffff;stroke-linecap:round;stroke-linejoin:round;stroke-width:0.999999}
		.st17 {fill:#ff7c80;stroke:#ffffff;stroke-linecap:round;stroke-linejoin:round;stroke-width:0.999999}
		.st18 {fill:none;fill-rule:evenodd;font-size:12px;overflow:visible;stroke-linecap:square;stroke-miterlimit:3}
	]]>
	</style>

	<g v:mID="0" v:index="1" v:groupContext="foregroundPage">
		<title>Página-1</title>
		<v:pageProperties v:drawingScale="0.0393701" v:pageScale="0.0393701" v:drawingUnits="24" v:shadowOffsetX="8.50393"
				v:shadowOffsetY="-8.50393"/>
		<v:layer v:name="Conector" v:index="0"/>
		<g id="shape1-1" v:mID="1" v:groupContext="shape" transform="translate(98.2579,-177.493)">
			<title>Rectángulo redondeado</title>
			<desc>h2g:Occupant</desc>
			<v:userDefs>
				<v:ud v:nameU="CTypeTopLeftSnip" v:prompt="" v:val="VT0(0):5"/>
				<v:ud v:nameU="CTypeTopRightSnip" v:prompt="" v:val="VT0(0):5"/>
				<v:ud v:nameU="CTypeBotLeftSnip" v:prompt="" v:val="VT0(0):5"/>
				<v:ud v:nameU="CTypeBotRightSnip" v:prompt="" v:val="VT0(0):5"/>
				<v:ud v:nameU="CornerLockHoriz" v:prompt="" v:val="VT0(1):5"/>
				<v:ud v:nameU="CornerLockVert" v:prompt="" v:val="VT0(1):5"/>
				<v:ud v:nameU="CornerLockDiag" v:prompt="" v:val="VT0(0):5"/>
				<v:ud v:nameU="TopLeftOffset" v:prompt="" v:val="VT0(0):26"/>
				<v:ud v:nameU="TopRightOffset" v:prompt="" v:val="VT0(0):26"/>
				<v:ud v:nameU="BotLeftOffset" v:prompt="" v:val="VT0(0):26"/>
				<v:ud v:nameU="BotRightOffset" v:prompt="" v:val="VT0(0):26"/>
				<v:ud v:nameU="visVersion" v:prompt="" v:val="VT0(15):26"/>
			</v:userDefs>
			<v:textBlock v:margins="rect(3.99999,3.99999,3.99999,3.99999)" v:tabSpace="42.5196"/>
			<v:textRect cx="40.3933" cy="247.55" width="80.79" height="27.9251"/>
			<path d="M5.05 261.51 L75.74 261.51 A5.04912 5.04912 -180 0 0 80.79 256.46 L80.79 238.63 A5.04912 5.04912 -180 0 0 75.74
						 233.58 L5.05 233.58 A5.04912 5.04912 -180 0 0 -0 238.63 L0 256.46 A5.04912 5.04912 -180 0 0 5.05 261.51
						 Z" class="st1"/>
			<text x="12.05" y="250.55" class="st2" v:langID="3082"><v:paragraph v:horizAlign="1"/><v:tabList/>h2g:Occupant</text>		</g>
		<g id="shape2-4" v:mID="2" v:groupContext="shape" transform="translate(8.25779,-128.308)">
			<title>Rectángulo redondeado.2</title>
			<desc>h2g:Actions</desc>
			<v:userDefs>
				<v:ud v:nameU="CTypeTopLeftSnip" v:prompt="" v:val="VT0(0):5"/>
				<v:ud v:nameU="CTypeTopRightSnip" v:prompt="" v:val="VT0(0):5"/>
				<v:ud v:nameU="CTypeBotLeftSnip" v:prompt="" v:val="VT0(0):5"/>
				<v:ud v:nameU="CTypeBotRightSnip" v:prompt="" v:val="VT0(0):5"/>
				<v:ud v:nameU="CornerLockHoriz" v:prompt="" v:val="VT0(1):5"/>
				<v:ud v:nameU="CornerLockVert" v:prompt="" v:val="VT0(1):5"/>
				<v:ud v:nameU="CornerLockDiag" v:prompt="" v:val="VT0(0):5"/>
				<v:ud v:nameU="TopLeftOffset" v:prompt="" v:val="VT0(0):26"/>
				<v:ud v:nameU="TopRightOffset" v:prompt="" v:val="VT0(0):26"/>
				<v:ud v:nameU="BotLeftOffset" v:prompt="" v:val="VT0(0):26"/>
				<v:ud v:nameU="BotRightOffset" v:prompt="" v:val="VT0(0):26"/>
				<v:ud v:nameU="visVersion" v:prompt="" v:val="VT0(15):26"/>
			</v:userDefs>
			<v:textBlock v:margins="rect(3.99999,3.99999,3.99999,3.99999)" v:tabSpace="42.5196"/>
			<v:textRect cx="40.3933" cy="247.55" width="80.79" height="27.9251"/>
			<path d="M5.05 261.51 L75.74 261.51 A5.04912 5.04912 -180 0 0 80.79 256.46 L80.79 238.63 A5.04912 5.04912 -180 0 0 75.74
						 233.58 L5.05 233.58 A5.04912 5.04912 -180 0 0 0 238.63 L0 256.46 A5.04912 5.04912 -180 0 0 5.05 261.51 Z"
					class="st1"/>
			<text x="16.49" y="250.55" class="st2" v:langID="3082"><v:paragraph v:horizAlign="1"/><v:tabList/>h2g:Actions</text>		</g>
		<g id="shape3-7" v:mID="3" v:groupContext="shape" transform="translate(98.2579,-128.308)">
			<title>Rectángulo redondeado.3</title>
			<desc>h2g:Needs</desc>
			<v:userDefs>
				<v:ud v:nameU="CTypeTopLeftSnip" v:prompt="" v:val="VT0(0):5"/>
				<v:ud v:nameU="CTypeTopRightSnip" v:prompt="" v:val="VT0(0):5"/>
				<v:ud v:nameU="CTypeBotLeftSnip" v:prompt="" v:val="VT0(0):5"/>
				<v:ud v:nameU="CTypeBotRightSnip" v:prompt="" v:val="VT0(0):5"/>
				<v:ud v:nameU="CornerLockHoriz" v:prompt="" v:val="VT0(1):5"/>
				<v:ud v:nameU="CornerLockVert" v:prompt="" v:val="VT0(1):5"/>
				<v:ud v:nameU="CornerLockDiag" v:prompt="" v:val="VT0(0):5"/>
				<v:ud v:nameU="TopLeftOffset" v:prompt="" v:val="VT0(0):26"/>
				<v:ud v:nameU="TopRightOffset" v:prompt="" v:val="VT0(0):26"/>
				<v:ud v:nameU="BotLeftOffset" v:prompt="" v:val="VT0(0):26"/>
				<v:ud v:nameU="BotRightOffset" v:prompt="" v:val="VT0(0):26"/>
				<v:ud v:nameU="visVersion" v:prompt="" v:val="VT0(15):26"/>
			</v:userDefs>
			<v:textBlock v:margins="rect(3.99999,3.99999,3.99999,3.99999)" v:tabSpace="42.5196"/>
			<v:textRect cx="40.3933" cy="247.55" width="80.79" height="27.9251"/>
			<path d="M5.05 261.51 L75.74 261.51 A5.04912 5.04912 -180 0 0 80.79 256.46 L80.79 238.63 A5.04912 5.04912 -180 0 0 75.74
						 233.58 L5.05 233.58 A5.04912 5.04912 -180 0 0 -0 238.63 L0 256.46 A5.04912 5.04912 -180 0 0 5.05 261.51
						 Z" class="st1"/>
			<text x="18.76" y="250.55" class="st2" v:langID="3082"><v:paragraph v:horizAlign="1"/><v:tabList/>h2g:Needs</text>		</g>
		<g id="shape4-10" v:mID="4" v:groupContext="shape" transform="translate(188.258,-128.308)">
			<title>Rectángulo redondeado.4</title>
			<desc>h2g:Drivers</desc>
			<v:userDefs>
				<v:ud v:nameU="CTypeTopLeftSnip" v:prompt="" v:val="VT0(0):5"/>
				<v:ud v:nameU="CTypeTopRightSnip" v:prompt="" v:val="VT0(0):5"/>
				<v:ud v:nameU="CTypeBotLeftSnip" v:prompt="" v:val="VT0(0):5"/>
				<v:ud v:nameU="CTypeBotRightSnip" v:prompt="" v:val="VT0(0):5"/>
				<v:ud v:nameU="CornerLockHoriz" v:prompt="" v:val="VT0(1):5"/>
				<v:ud v:nameU="CornerLockVert" v:prompt="" v:val="VT0(1):5"/>
				<v:ud v:nameU="CornerLockDiag" v:prompt="" v:val="VT0(0):5"/>
				<v:ud v:nameU="TopLeftOffset" v:prompt="" v:val="VT0(0):26"/>
				<v:ud v:nameU="TopRightOffset" v:prompt="" v:val="VT0(0):26"/>
				<v:ud v:nameU="BotLeftOffset" v:prompt="" v:val="VT0(0):26"/>
				<v:ud v:nameU="BotRightOffset" v:prompt="" v:val="VT0(0):26"/>
				<v:ud v:nameU="visVersion" v:prompt="" v:val="VT0(15):26"/>
			</v:userDefs>
			<v:textBlock v:margins="rect(3.99999,3.99999,3.99999,3.99999)" v:tabSpace="42.5196"/>
			<v:textRect cx="40.3933" cy="247.55" width="80.79" height="27.9251"/>
			<path d="M5.05 261.51 L75.74 261.51 A5.04912 5.04912 -180 0 0 80.79 256.46 L80.79 238.63 A5.04912 5.04912 -180 0 0 75.74
						 233.58 L5.05 233.58 A5.04912 5.04912 -180 0 0 0 238.63 L0 256.46 A5.04912 5.04912 -180 0 0 5.05 261.51 Z"
					class="st1"/>
			<text x="17.13" y="250.55" class="st2" v:langID="3082"><v:paragraph v:horizAlign="1"/><v:tabList/>h2g:Drivers</text>		</g>
		<g id="shape5-13" v:mID="5" v:groupContext="shape" transform="translate(93.8639,-70.9829)">
			<title>Rectángulo redondeado.5</title>
			<desc>ifcOWL (Building Structure and Elements)</desc>
			<v:userDefs>
				<v:ud v:nameU="CTypeTopLeftSnip" v:prompt="" v:val="VT0(0):5"/>
				<v:ud v:nameU="CTypeTopRightSnip" v:prompt="" v:val="VT0(0):5"/>
				<v:ud v:nameU="CTypeBotLeftSnip" v:prompt="" v:val="VT0(0):5"/>
				<v:ud v:nameU="CTypeBotRightSnip" v:prompt="" v:val="VT0(0):5"/>
				<v:ud v:nameU="CornerLockHoriz" v:prompt="" v:val="VT0(1):5"/>
				<v:ud v:nameU="CornerLockVert" v:prompt="" v:val="VT0(1):5"/>
				<v:ud v:nameU="CornerLockDiag" v:prompt="" v:val="VT0(0):5"/>
				<v:ud v:nameU="TopLeftOffset" v:prompt="" v:val="VT0(0):26"/>
				<v:ud v:nameU="TopRightOffset" v:prompt="" v:val="VT0(0):26"/>
				<v:ud v:nameU="BotLeftOffset" v:prompt="" v:val="VT0(0):26"/>
				<v:ud v:nameU="BotRightOffset" v:prompt="" v:val="VT0(0):26"/>
				<v:ud v:nameU="visVersion" v:prompt="" v:val="VT0(15):26"/>
			</v:userDefs>
			<v:textBlock v:margins="rect(3.99999,3.99999,3.99999,3.99999)" v:tabSpace="42.5196"/>
			<v:textRect cx="44.787" cy="243.691" width="89.58" height="35.6437"/>
			<path d="M5.6 261.51 L83.98 261.51 A5.59832 5.59832 -180 0 0 89.57 255.91 L89.57 231.46 A5.59832 5.59832 -180 0 0 83.98
						 225.87 L5.6 225.87 A5.59832 5.59832 -180 0 0 -0 231.46 L0 255.91 A5.59832 5.59832 -180 0 0 5.6 261.51 Z"
					class="st3"/>
			<text x="30.14" y="237.09" class="st2" v:langID="3082"><v:paragraph v:horizAlign="1"/><v:tabList/>ifcOWL<v:newlineChar/><tspan
						x="7.52" dy="1.275em" class="st4">(</tspan><tspan class="st4">Building Structure and </tspan><tspan
						x="28.77" dy="1.2em" class="st4">Elements</tspan><tspan class="st4">)</tspan></text>		</g>
		<g id="shape6-20" v:mID="6" v:groupContext="shape" transform="translate(0.745999,-7.41399)">
			<title>Rectángulo redondeado.6</title>
			<desc>h2g:BuildingInfraestructure</desc>
			<v:userDefs>
				<v:ud v:nameU="CTypeTopLeftSnip" v:prompt="" v:val="VT0(0):5"/>
				<v:ud v:nameU="CTypeTopRightSnip" v:prompt="" v:val="VT0(0):5"/>
				<v:ud v:nameU="CTypeBotLeftSnip" v:prompt="" v:val="VT0(0):5"/>
				<v:ud v:nameU="CTypeBotRightSnip" v:prompt="" v:val="VT0(0):5"/>
				<v:ud v:nameU="CornerLockHoriz" v:prompt="" v:val="VT0(1):5"/>
				<v:ud v:nameU="CornerLockVert" v:prompt="" v:val="VT0(1):5"/>
				<v:ud v:nameU="CornerLockDiag" v:prompt="" v:val="VT0(0):5"/>
				<v:ud v:nameU="TopLeftOffset" v:prompt="" v:val="VT0(0):26"/>
				<v:ud v:nameU="TopRightOffset" v:prompt="" v:val="VT0(0):26"/>
				<v:ud v:nameU="BotLeftOffset" v:prompt="" v:val="VT0(0):26"/>
				<v:ud v:nameU="BotRightOffset" v:prompt="" v:val="VT0(0):26"/>
				<v:ud v:nameU="visVersion" v:prompt="" v:val="VT0(15):26"/>
			</v:userDefs>
			<v:textBlock v:margins="rect(3.99999,3.99999,3.99999,3.99999)" v:tabSpace="42.5196"/>
			<v:textRect cx="49.1807" cy="247.55" width="98.37" height="27.9251"/>
			<path d="M6.15 261.51 L92.21 261.51 A6.14753 6.14753 -180 0 0 98.36 255.36 L98.36 239.73 A6.14753 6.14753 -180 0 0 92.21
						 233.58 L6.15 233.58 A6.14753 6.14753 -180 0 0 -0 239.73 L0 255.36 A6.14753 6.14753 -180 0 0 6.15 261.51
						 Z" class="st1"/>
			<text x="4.43" y="249.95" class="st5" v:langID="3082"><v:paragraph v:horizAlign="1"/><v:tabList/>h2g:BuildingInfraestructure</text>		</g>
		<g id="shape7-23" v:mID="7" v:groupContext="shape" transform="translate(278.258,-70.9829)">
			<title>Rectángulo redondeado.7</title>
			<desc>SSN (sensor networks)</desc>
			<v:userDefs>
				<v:ud v:nameU="CTypeTopLeftSnip" v:prompt="" v:val="VT0(0):5"/>
				<v:ud v:nameU="CTypeTopRightSnip" v:prompt="" v:val="VT0(0):5"/>
				<v:ud v:nameU="CTypeBotLeftSnip" v:prompt="" v:val="VT0(0):5"/>
				<v:ud v:nameU="CTypeBotRightSnip" v:prompt="" v:val="VT0(0):5"/>
				<v:ud v:nameU="CornerLockHoriz" v:prompt="" v:val="VT0(1):5"/>
				<v:ud v:nameU="CornerLockVert" v:prompt="" v:val="VT0(1):5"/>
				<v:ud v:nameU="CornerLockDiag" v:prompt="" v:val="VT0(0):5"/>
				<v:ud v:nameU="TopLeftOffset" v:prompt="" v:val="VT0(0):26"/>
				<v:ud v:nameU="TopRightOffset" v:prompt="" v:val="VT0(0):26"/>
				<v:ud v:nameU="BotLeftOffset" v:prompt="" v:val="VT0(0):26"/>
				<v:ud v:nameU="BotRightOffset" v:prompt="" v:val="VT0(0):26"/>
				<v:ud v:nameU="visVersion" v:prompt="" v:val="VT0(15):26"/>
			</v:userDefs>
			<v:textBlock v:margins="rect(3.99999,3.99999,3.99999,3.99999)" v:tabSpace="42.5196"/>
			<v:textRect cx="40.3933" cy="243.691" width="80.79" height="35.6437"/>
			<path d="M5.05 261.51 L75.74 261.51 A5.04912 5.04912 -180 0 0 80.79 256.46 L80.79 230.92 A5.04912 5.04912 -180 0 0 75.74
						 225.87 L5.05 225.87 A5.04912 5.04912 -180 0 0 0 230.92 L0 256.46 A5.04912 5.04912 -180 0 0 5.05 261.51 Z"
					class="st6"/>
			<text x="32.57" y="241.89" class="st2" v:langID="3082"><v:paragraph v:horizAlign="1"/><v:tabList/>SSN<v:newlineChar/><tspan
						x="11.59" dy="1.275em" class="st4">(</tspan><tspan class="st4">sensor networks</tspan><tspan class="st4">)</tspan></text>		</g>
		<g id="shape8-29" v:mID="8" v:groupContext="shape" transform="translate(128.73,-0.499999)">
			<title>Rectángulo redondeado.8</title>
			<desc>OntoMg (Building grids &#38; Energy)</desc>
			<v:userDefs>
				<v:ud v:nameU="CTypeTopLeftSnip" v:prompt="" v:val="VT0(0):5"/>
				<v:ud v:nameU="CTypeTopRightSnip" v:prompt="" v:val="VT0(0):5"/>
				<v:ud v:nameU="CTypeBotLeftSnip" v:prompt="" v:val="VT0(0):5"/>
				<v:ud v:nameU="CTypeBotRightSnip" v:prompt="" v:val="VT0(0):5"/>
				<v:ud v:nameU="CornerLockHoriz" v:prompt="" v:val="VT0(1):5"/>
				<v:ud v:nameU="CornerLockVert" v:prompt="" v:val="VT0(1):5"/>
				<v:ud v:nameU="CornerLockDiag" v:prompt="" v:val="VT0(0):5"/>
				<v:ud v:nameU="TopLeftOffset" v:prompt="" v:val="VT0(0):26"/>
				<v:ud v:nameU="TopRightOffset" v:prompt="" v:val="VT0(0):26"/>
				<v:ud v:nameU="BotLeftOffset" v:prompt="" v:val="VT0(0):26"/>
				<v:ud v:nameU="BotRightOffset" v:prompt="" v:val="VT0(0):26"/>
				<v:ud v:nameU="visVersion" v:prompt="" v:val="VT0(15):26"/>
			</v:userDefs>
			<v:textBlock v:margins="rect(3.99999,3.99999,3.99999,3.99999)" v:tabSpace="42.5196"/>
			<v:textRect cx="40.3933" cy="244.093" width="80.79" height="34.8393"/>
			<path d="M5.05 261.51 L75.74 261.51 A5.04912 5.04912 -180 0 0 80.79 256.46 L80.79 231.72 A5.04912 5.04912 -180 0 0 75.74
						 226.67 L5.05 226.67 A5.04912 5.04912 -180 0 0 0 231.72 L0 256.46 A5.04912 5.04912 -180 0 0 5.05 261.51 Z"
					class="st7"/>
			<text x="23.52" y="237.49" class="st2" v:langID="3082"><v:paragraph v:horizAlign="1"/><v:tabList/>OntoMg<v:newlineChar/><tspan
						x="13.53" dy="1.275em" class="st4">(</tspan><tspan class="st4">Building grids </tspan><tspan class="st4">&#38; </tspan><tspan
						x="28.04" dy="1.2em" class="st4">Energy</tspan><tspan class="st4">)</tspan></text>		</g>
		<g id="shape9-37" v:mID="9" v:groupContext="shape" transform="translate(278.258,-177.493)">
			<title>Rectángulo redondeado.9</title>
			<desc>TIME (Time Measurements)</desc>
			<v:userDefs>
				<v:ud v:nameU="CTypeTopLeftSnip" v:prompt="" v:val="VT0(0):5"/>
				<v:ud v:nameU="CTypeTopRightSnip" v:prompt="" v:val="VT0(0):5"/>
				<v:ud v:nameU="CTypeBotLeftSnip" v:prompt="" v:val="VT0(0):5"/>
				<v:ud v:nameU="CTypeBotRightSnip" v:prompt="" v:val="VT0(0):5"/>
				<v:ud v:nameU="CornerLockHoriz" v:prompt="" v:val="VT0(1):5"/>
				<v:ud v:nameU="CornerLockVert" v:prompt="" v:val="VT0(1):5"/>
				<v:ud v:nameU="CornerLockDiag" v:prompt="" v:val="VT0(0):5"/>
				<v:ud v:nameU="TopLeftOffset" v:prompt="" v:val="VT0(0):26"/>
				<v:ud v:nameU="TopRightOffset" v:prompt="" v:val="VT0(0):26"/>
				<v:ud v:nameU="BotLeftOffset" v:prompt="" v:val="VT0(0):26"/>
				<v:ud v:nameU="BotRightOffset" v:prompt="" v:val="VT0(0):26"/>
				<v:ud v:nameU="visVersion" v:prompt="" v:val="VT0(15):26"/>
			</v:userDefs>
			<v:textBlock v:margins="rect(3.99999,3.99999,3.99999,3.99999)" v:tabSpace="42.5196"/>
			<v:textRect cx="40.3933" cy="247.55" width="80.79" height="27.9251"/>
			<path d="M5.05 261.51 L75.74 261.51 A5.04912 5.04912 -180 0 0 80.79 256.46 L80.79 238.63 A5.04912 5.04912 -180 0 0 75.74
						 233.58 L5.05 233.58 A5.04912 5.04912 -180 0 0 -0 238.63 L0 256.46 A5.04912 5.04912 -180 0 0 5.05 261.51
						 Z" class="st8"/>
			<text x="29.98" y="245.75" class="st2" v:langID="3082"><v:paragraph v:horizAlign="1"/><v:tabList/>TIME<v:newlineChar/><tspan
						x="4.81" dy="1.275em" class="st4">(</tspan><tspan class="st4">Time Measurements</tspan><tspan class="st4">)</tspan></text>		</g>
		<g id="shape10-43" v:mID="10" v:groupContext="shape" transform="translate(412.194,-83.2599)">
			<title>Rectángulo redondeado.10</title>
			<desc>QUDT (Unit Measurements)</desc>
			<v:userDefs>
				<v:ud v:nameU="CTypeTopLeftSnip" v:prompt="" v:val="VT0(0):5"/>
				<v:ud v:nameU="CTypeTopRightSnip" v:prompt="" v:val="VT0(0):5"/>
				<v:ud v:nameU="CTypeBotLeftSnip" v:prompt="" v:val="VT0(0):5"/>
				<v:ud v:nameU="CTypeBotRightSnip" v:prompt="" v:val="VT0(0):5"/>
				<v:ud v:nameU="CornerLockHoriz" v:prompt="" v:val="VT0(1):5"/>
				<v:ud v:nameU="CornerLockVert" v:prompt="" v:val="VT0(1):5"/>
				<v:ud v:nameU="CornerLockDiag" v:prompt="" v:val="VT0(0):5"/>
				<v:ud v:nameU="TopLeftOffset" v:prompt="" v:val="VT0(0):26"/>
				<v:ud v:nameU="TopRightOffset" v:prompt="" v:val="VT0(0):26"/>
				<v:ud v:nameU="BotLeftOffset" v:prompt="" v:val="VT0(0):26"/>
				<v:ud v:nameU="BotRightOffset" v:prompt="" v:val="VT0(0):26"/>
				<v:ud v:nameU="visVersion" v:prompt="" v:val="VT0(15):26"/>
			</v:userDefs>
			<v:textBlock v:margins="rect(3.99999,3.99999,3.99999,3.99999)" v:tabSpace="42.5196"/>
			<v:textRect cx="40.3933" cy="247.55" width="80.79" height="27.9251"/>
			<path d="M5.05 261.51 L75.74 261.51 A5.04912 5.04912 -180 0 0 80.79 256.46 L80.79 238.63 A5.04912 5.04912 -180 0 0 75.74
						 233.58 L5.05 233.58 A5.04912 5.04912 -180 0 0 0 238.63 L0 256.46 A5.04912 5.04912 -180 0 0 5.05 261.51 Z"
					class="st9"/>
			<text x="28.31" y="245.75" class="st2" v:langID="3082"><v:paragraph v:horizAlign="1"/><v:tabList/>QUDT<v:newlineChar/><tspan
						x="5.87" dy="1.275em" class="st4">(</tspan><tspan class="st4">Unit Measurements</tspan><tspan class="st4">)</tspan></text>		</g>
		<g id="shape11-49" v:mID="11" v:groupContext="shape" transform="translate(412.194,-43.0579)">
			<title>Rectángulo redondeado.11</title>
			<desc>GEO (Geo-Spatial information)</desc>
			<v:userDefs>
				<v:ud v:nameU="CTypeTopLeftSnip" v:prompt="" v:val="VT0(0):5"/>
				<v:ud v:nameU="CTypeTopRightSnip" v:prompt="" v:val="VT0(0):5"/>
				<v:ud v:nameU="CTypeBotLeftSnip" v:prompt="" v:val="VT0(0):5"/>
				<v:ud v:nameU="CTypeBotRightSnip" v:prompt="" v:val="VT0(0):5"/>
				<v:ud v:nameU="CornerLockHoriz" v:prompt="" v:val="VT0(1):5"/>
				<v:ud v:nameU="CornerLockVert" v:prompt="" v:val="VT0(1):5"/>
				<v:ud v:nameU="CornerLockDiag" v:prompt="" v:val="VT0(0):5"/>
				<v:ud v:nameU="TopLeftOffset" v:prompt="" v:val="VT0(0):26"/>
				<v:ud v:nameU="TopRightOffset" v:prompt="" v:val="VT0(0):26"/>
				<v:ud v:nameU="BotLeftOffset" v:prompt="" v:val="VT0(0):26"/>
				<v:ud v:nameU="BotRightOffset" v:prompt="" v:val="VT0(0):26"/>
				<v:ud v:nameU="visVersion" v:prompt="" v:val="VT0(15):26"/>
			</v:userDefs>
			<v:textBlock v:margins="rect(3.99999,3.99999,3.99999,3.99999)" v:tabSpace="42.5196"/>
			<v:textRect cx="40.3933" cy="244.093" width="80.79" height="34.8393"/>
			<path d="M5.05 261.51 L75.74 261.51 A5.04912 5.04912 -180 0 0 80.79 256.46 L80.79 231.72 A5.04912 5.04912 -180 0 0 75.74
						 226.67 L5.05 226.67 A5.04912 5.04912 -180 0 0 0 231.72 L0 256.46 A5.04912 5.04912 -180 0 0 5.05 261.51 Z"
					class="st10"/>
			<text x="31.49" y="237.49" class="st2" v:langID="3082"><v:paragraph v:horizAlign="1"/><v:tabList/>GEO<v:newlineChar/><tspan
						x="20.32" dy="1.275em" class="st4">(</tspan><tspan class="st4">Geo</tspan><tspan class="st4">-</tspan><tspan
						class="st4">Spatial </tspan><tspan x="19.97" dy="1.2em" class="st4">information</tspan><tspan class="st4">)</tspan></text>		</g>
		<g id="shape12-58" v:mID="12" v:groupContext="shape" v:layerMember="0" transform="translate(48.6519,-156.233)">
			<title>Conector dinámico</title>
			<path d="M90 240.25 L0 261.51 L90 240.25 Z" class="st11"/>
			<path d="M90 240.25 L0 261.51" class="st12"/>
		</g>
		<g id="shape13-61" v:mID="13" v:groupContext="shape" v:layerMember="0" transform="translate(138.655,-156.233)">
			<title>Conector dinámico.13</title>
			<path d="M0 240.25 L0 261.51 L0 240.25 Z" class="st11"/>
			<path d="M0 240.25 L0 261.51" class="st12"/>
		</g>
		<g id="shape14-64" v:mID="14" v:groupContext="shape" v:layerMember="0" transform="translate(138.652,-156.233)">
			<title>Conector dinámico.14</title>
			<path d="M0 240.25 L90 261.51 L0 240.25 Z" class="st11"/>
			<path d="M0 240.25 L90 261.51" class="st12"/>
		</g>
		<g id="shape15-67" v:mID="15" v:groupContext="shape" v:layerMember="0" transform="translate(48.6514,-106.628)">
			<title>Conector dinámico.15</title>
			<path d="M0 239.83 L90 261.51 L0 239.83 Z" class="st11"/>
			<path d="M0 239.83 L90 261.51" class="st12"/>
		</g>
		<g id="shape16-70" v:mID="16" v:groupContext="shape" v:layerMember="0" transform="translate(138.655,-106.628)">
			<title>Conector dinámico.16</title>
			<path d="M0 239.83 L0 261.51 L0 239.83 Z" class="st11"/>
			<path d="M0 239.83 L0 261.51" class="st12"/>
		</g>
		<g id="shape17-73" v:mID="17" v:groupContext="shape" v:layerMember="0" transform="translate(138.652,-106.628)">
			<title>Conector dinámico.17</title>
			<path d="M90 239.83 L0 261.51 L90 239.83 Z" class="st11"/>
			<path d="M90 239.83 L0 261.51" class="st12"/>
		</g>
		<g id="shape18-76" v:mID="18" v:groupContext="shape" v:layerMember="0" transform="translate(228.652,-106.628)">
			<title>Conector dinámico.18</title>
			<path d="M0 239.83 L90 261.51 L0 239.83 Z" class="st11"/>
			<path d="M0 239.83 L90 261.51" class="st12"/>
		</g>
		<g id="shape19-79" v:mID="19" v:groupContext="shape" v:layerMember="0" transform="translate(242.734,-156.233)">
			<title>Conector dinámico.20</title>
			<path d="M0 261.51 L35.52 226.29 L0 261.51 Z" class="st11"/>
			<path d="M0 261.51 L35.52 226.29" class="st12"/>
		</g>
		<g id="shape20-82" v:mID="20" v:groupContext="shape" v:layerMember="0" transform="translate(138.652,-35.3429)">
			<title>Conector dinámico.21</title>
			<path d="M0 225.87 L30.47 261.51 L0 225.87 Z" class="st11"/>
			<path d="M0 225.87 L30.47 261.51" class="st12"/>
		</g>
		<g id="shape21-85" v:mID="21" v:groupContext="shape" v:layerMember="0" transform="translate(318.655,-106.627)">
			<title>Conector dinámico.22</title>
			<path d="M0 261.51 L0 190.64 L0 261.51 Z" class="st11"/>
			<path d="M0 261.51 L0 190.64" class="st12"/>
		</g>
		<g id="shape22-88" v:mID="22" v:groupContext="shape" v:layerMember="0" transform="translate(359.044,-88.8069)">
			<title>Conector dinámico.23</title>
			<path d="M0 261.51 L53.15 253.09 L0 261.51 Z" class="st11"/>
			<path d="M0 261.51 L53.15 253.09" class="st12"/>
		</g>
		<g id="shape23-91" v:mID="23" v:groupContext="shape" v:layerMember="0" transform="translate(359.044,-60.4749)">
			<title>Conector dinámico.24</title>
			<path d="M0 233.18 L53.15 261.51 L0 233.18 Z" class="st11"/>
			<path d="M0 233.18 L53.15 261.51" class="st12"/>
		</g>
		<g id="shape24-94" v:mID="24" v:groupContext="shape" v:layerMember="0" transform="translate(183.439,-88.8079)">
			<title>Conector dinámico.26</title>
			<path d="M0 261.51 L94.82 261.51 L0 261.51 Z" class="st11"/>
			<path d="M0 261.51 L94.82 261.51" class="st12"/>
		</g>
		<g id="shape25-97" v:mID="25" v:groupContext="shape" transform="translate(239.14,-3.95699)">
			<title>Rectángulo redondeado.27</title>
			<desc>h2g:BuildingApliance</desc>
			<v:userDefs>
				<v:ud v:nameU="CTypeTopLeftSnip" v:prompt="" v:val="VT0(0):5"/>
				<v:ud v:nameU="CTypeTopRightSnip" v:prompt="" v:val="VT0(0):5"/>
				<v:ud v:nameU="CTypeBotLeftSnip" v:prompt="" v:val="VT0(0):5"/>
				<v:ud v:nameU="CTypeBotRightSnip" v:prompt="" v:val="VT0(0):5"/>
				<v:ud v:nameU="CornerLockHoriz" v:prompt="" v:val="VT0(1):5"/>
				<v:ud v:nameU="CornerLockVert" v:prompt="" v:val="VT0(1):5"/>
				<v:ud v:nameU="CornerLockDiag" v:prompt="" v:val="VT0(0):5"/>
				<v:ud v:nameU="TopLeftOffset" v:prompt="" v:val="VT0(0):26"/>
				<v:ud v:nameU="TopRightOffset" v:prompt="" v:val="VT0(0):26"/>
				<v:ud v:nameU="BotLeftOffset" v:prompt="" v:val="VT0(0):26"/>
				<v:ud v:nameU="BotRightOffset" v:prompt="" v:val="VT0(0):26"/>
				<v:ud v:nameU="visVersion" v:prompt="" v:val="VT0(15):26"/>
			</v:userDefs>
			<v:textBlock v:margins="rect(3.99999,3.99999,3.99999,3.99999)" v:tabSpace="42.5196"/>
			<v:textRect cx="40.3933" cy="247.55" width="80.79" height="27.9251"/>
			<path d="M5.05 261.51 L75.74 261.51 A5.04912 5.04912 -180 0 0 80.79 256.46 L80.79 238.63 A5.04912 5.04912 -180 0 0 75.74
						 233.58 L5.05 233.58 A5.04912 5.04912 -180 0 0 0 238.63 L0 256.46 A5.04912 5.04912 -180 0 0 5.05 261.51 Z"
					class="st1"/>
			<text x="6.24" y="249.95" class="st5" v:langID="3082"><v:paragraph v:horizAlign="1"/><v:tabList/>h2g:BuildingApliance</text>		</g>
		<g id="shape26-100" v:mID="26" v:groupContext="shape" v:layerMember="0" transform="translate(0.749999,-17.922)">
			<title>Conector dinámico.28</title>
			<path d="M127.98 261.51 L0 258.05 L127.98 261.51 Z" class="st11"/>
			<path d="M127.98 261.51 L0 258.05" class="st12"/>
		</g>
		<g id="shape27-103" v:mID="27" v:groupContext="shape" v:layerMember="0" transform="translate(49.9319,-35.3429)">
			<title>Conector dinámico.29</title>
			<path d="M88.72 225.87 L0 261.51 L88.72 225.87 Z" class="st11"/>
			<path d="M88.72 225.87 L0 261.51" class="st12"/>
		</g>
		<g id="shape28-106" v:mID="28" v:groupContext="shape" v:layerMember="0" transform="translate(49.927,-35.3389)">
			<title>Conector dinámico.30</title>
			<path d="M0 261.51 L104.72 247.62 A2.3622 2.3622 0 1 1 109.4 247 L144.59 242.33 A2.3622 2.3622 0 0 1 149.27 241.71 L167.34
						 239.31 A2.3622 2.3622 0 0 1 172.02 238.69 L268.72 225.87 L0 261.51 Z" class="st11"/>
			<path d="M0 261.51 L104.72 247.62 A2.3622 2.3622 0 1 1 109.4 247 L144.59 242.33 A2.3622 2.3622 0 0 1 149.27 241.71 L167.34
						 239.31 A2.3622 2.3622 0 0 1 172.02 238.69 L268.72 225.87" class="st12"/>
		</g>
		<g id="shape29-109" v:mID="29" v:groupContext="shape" v:layerMember="0" transform="translate(138.653,-31.882)">
			<title>Conector dinámico.31</title>
			<path d="M140.88 261.51 L0 222.41 L140.88 261.51 Z" class="st11"/>
			<path d="M140.88 261.51 L0 222.41" class="st12"/>
		</g>
		<g id="shape30-112" v:mID="30" v:groupContext="shape" v:layerMember="0" transform="translate(279.533,-31.882)">
			<title>Conector dinámico.32</title>
			<path d="M0 261.51 L39.12 222.41 L0 261.51 Z" class="st11"/>
			<path d="M0 261.51 L39.12 222.41" class="st12"/>
		</g>
		<g id="shape31-115" v:mID="31" v:groupContext="shape" transform="translate(339.203,-3.95699)">
			<title>Rectángulo redondeado.33</title>
			<desc>h2g:BuildingState</desc>
			<v:userDefs>
				<v:ud v:nameU="CTypeTopLeftSnip" v:prompt="" v:val="VT0(0):5"/>
				<v:ud v:nameU="CTypeTopRightSnip" v:prompt="" v:val="VT0(0):5"/>
				<v:ud v:nameU="CTypeBotLeftSnip" v:prompt="" v:val="VT0(0):5"/>
				<v:ud v:nameU="CTypeBotRightSnip" v:prompt="" v:val="VT0(0):5"/>
				<v:ud v:nameU="CornerLockHoriz" v:prompt="" v:val="VT0(1):5"/>
				<v:ud v:nameU="CornerLockVert" v:prompt="" v:val="VT0(1):5"/>
				<v:ud v:nameU="CornerLockDiag" v:prompt="" v:val="VT0(0):5"/>
				<v:ud v:nameU="TopLeftOffset" v:prompt="" v:val="VT0(0):26"/>
				<v:ud v:nameU="TopRightOffset" v:prompt="" v:val="VT0(0):26"/>
				<v:ud v:nameU="BotLeftOffset" v:prompt="" v:val="VT0(0):26"/>
				<v:ud v:nameU="BotRightOffset" v:prompt="" v:val="VT0(0):26"/>
				<v:ud v:nameU="visVersion" v:prompt="" v:val="VT0(15):26"/>
			</v:userDefs>
			<v:textBlock v:margins="rect(3.99999,3.99999,3.99999,3.99999)" v:tabSpace="42.5196"/>
			<v:textRect cx="40.3933" cy="247.55" width="80.79" height="27.9251"/>
			<path d="M5.05 261.51 L75.74 261.51 A5.04912 5.04912 -180 0 0 80.79 256.46 L80.79 238.63 A5.04912 5.04912 -180 0 0 75.74
						 233.58 L5.05 233.58 A5.04912 5.04912 -180 0 0 0 238.63 L0 256.46 A5.04912 5.04912 -180 0 0 5.05 261.51 Z"
					class="st1"/>
			<text x="11.77" y="249.95" class="st5" v:langID="3082"><v:paragraph v:horizAlign="1"/><v:tabList/>h2g:BuildingState</text>		</g>
		<g id="shape32-118" v:mID="32" v:groupContext="shape" v:layerMember="0" transform="translate(318.656,-31.882)">
			<title>Conector dinámico.34</title>
			<path d="M60.94 261.51 L0 222.41 L60.94 261.51 Z" class="st11"/>
			<path d="M60.94 261.51 L0 222.41" class="st12"/>
		</g>
		<g id="shape33-121" v:mID="33" v:groupContext="shape" v:layerMember="0" transform="translate(138.656,-31.882)">
			<title>Conector dinámico.35</title>
			<path d="M240.94 261.51 L157.19 247.92 A2.36572 2.36572 -180 0 0 152.52 247.16 L109.42 240.17 A2.3622 2.3622 -180 0 0
						 104.76 239.41 L0 222.41 L240.94 261.51 Z" class="st11"/>
			<path d="M240.94 261.51 L157.19 247.92 A2.36572 2.36572 -180 0 0 152.52 247.16 L109.42 240.17 A2.3622 2.3622 -180 0 0
						 104.76 239.41 L0 222.41" class="st12"/>
		</g>
		<g id="shape34-124" v:mID="34" v:groupContext="shape" transform="translate(332.116,-130.376)">
			<title>Rectángulo redondeado.36</title>
			<desc>Ssn:Property</desc>
			<v:userDefs>
				<v:ud v:nameU="CTypeTopLeftSnip" v:prompt="" v:val="VT0(0):5"/>
				<v:ud v:nameU="CTypeTopRightSnip" v:prompt="" v:val="VT0(0):5"/>
				<v:ud v:nameU="CTypeBotLeftSnip" v:prompt="" v:val="VT0(0):5"/>
				<v:ud v:nameU="CTypeBotRightSnip" v:prompt="" v:val="VT0(0):5"/>
				<v:ud v:nameU="CornerLockHoriz" v:prompt="" v:val="VT0(1):5"/>
				<v:ud v:nameU="CornerLockVert" v:prompt="" v:val="VT0(1):5"/>
				<v:ud v:nameU="CornerLockDiag" v:prompt="" v:val="VT0(0):5"/>
				<v:ud v:nameU="TopLeftOffset" v:prompt="" v:val="VT0(0):26"/>
				<v:ud v:nameU="TopRightOffset" v:prompt="" v:val="VT0(0):26"/>
				<v:ud v:nameU="BotLeftOffset" v:prompt="" v:val="VT0(0):26"/>
				<v:ud v:nameU="BotRightOffset" v:prompt="" v:val="VT0(0):26"/>
				<v:ud v:nameU="visVersion" v:prompt="" v:val="VT0(15):26"/>
			</v:userDefs>
			<v:textBlock v:margins="rect(3.99999,3.99999,3.99999,3.99999)" v:tabSpace="42.5196"/>
			<v:textRect cx="40.3933" cy="247.55" width="80.79" height="27.9251"/>
			<path d="M5.05 261.51 L75.74 261.51 A5.04912 5.04912 -180 0 0 80.79 256.46 L80.79 238.63 A5.04912 5.04912 -180 0 0 75.74
						 233.58 L5.05 233.58 A5.04912 5.04912 -180 0 0 0 238.63 L0 256.46 A5.04912 5.04912 -180 0 0 5.05 261.51 Z"
					class="st6"/>
			<text x="14.42" y="250.55" class="st2" v:langID="3082"><v:paragraph v:horizAlign="1"/><v:tabList/>Ssn:Property</text>		</g>
		<g id="shape35-127" v:mID="35" v:groupContext="shape" v:layerMember="0" transform="translate(318.65,-106.626)">
			<title>Conector dinámico.37</title>
			<path d="M53.86 237.76 L0 261.51 L53.86 237.76 Z" class="st11"/>
			<path d="M53.86 237.76 L0 261.51" class="st12"/>
		</g>
		<g id="shape36-130" v:mID="36" v:groupContext="shape" transform="translate(440.54,-199.174)">
			<title>Rectángulo redondeado.38</title>
			<desc>h2g:EconomicProperties</desc>
			<v:userDefs>
				<v:ud v:nameU="CTypeTopLeftSnip" v:prompt="" v:val="VT0(0):5"/>
				<v:ud v:nameU="CTypeTopRightSnip" v:prompt="" v:val="VT0(0):5"/>
				<v:ud v:nameU="CTypeBotLeftSnip" v:prompt="" v:val="VT0(0):5"/>
				<v:ud v:nameU="CTypeBotRightSnip" v:prompt="" v:val="VT0(0):5"/>
				<v:ud v:nameU="CornerLockHoriz" v:prompt="" v:val="VT0(1):5"/>
				<v:ud v:nameU="CornerLockVert" v:prompt="" v:val="VT0(1):5"/>
				<v:ud v:nameU="CornerLockDiag" v:prompt="" v:val="VT0(0):5"/>
				<v:ud v:nameU="TopLeftOffset" v:prompt="" v:val="VT0(0):26"/>
				<v:ud v:nameU="TopRightOffset" v:prompt="" v:val="VT0(0):26"/>
				<v:ud v:nameU="BotLeftOffset" v:prompt="" v:val="VT0(0):26"/>
				<v:ud v:nameU="BotRightOffset" v:prompt="" v:val="VT0(0):26"/>
				<v:ud v:nameU="visVersion" v:prompt="" v:val="VT0(15):26"/>
			</v:userDefs>
			<v:textBlock v:margins="rect(3.99999,3.99999,3.99999,3.99999)" v:tabSpace="42.5196"/>
			<v:textRect cx="52.4405" cy="247.55" width="104.89" height="27.9251"/>
			<path d="M6.56 261.51 L98.33 261.51 A6.555 6.555 -180 0 0 104.88 254.95 L104.88 240.14 A6.555 6.555 -180 0 0 98.33 233.58
						 L6.56 233.58 A6.555 6.555 -180 0 0 0 240.14 L0 254.95 A6.555 6.555 -180 0 0 6.56 261.51 Z" class="st1"/>
			<text x="12.72" y="249.95" class="st5" v:langID="3082"><v:paragraph v:horizAlign="1"/><v:tabList/>h2g:EconomicProperties</text>		</g>
		<g id="shape37-133" v:mID="37" v:groupContext="shape" transform="translate(440.54,-166.614)">
			<title>Rectángulo redondeado.39</title>
			<desc>h2g:PhysicProperties</desc>
			<v:userDefs>
				<v:ud v:nameU="CTypeTopLeftSnip" v:prompt="" v:val="VT0(0):5"/>
				<v:ud v:nameU="CTypeTopRightSnip" v:prompt="" v:val="VT0(0):5"/>
				<v:ud v:nameU="CTypeBotLeftSnip" v:prompt="" v:val="VT0(0):5"/>
				<v:ud v:nameU="CTypeBotRightSnip" v:prompt="" v:val="VT0(0):5"/>
				<v:ud v:nameU="CornerLockHoriz" v:prompt="" v:val="VT0(1):5"/>
				<v:ud v:nameU="CornerLockVert" v:prompt="" v:val="VT0(1):5"/>
				<v:ud v:nameU="CornerLockDiag" v:prompt="" v:val="VT0(0):5"/>
				<v:ud v:nameU="TopLeftOffset" v:prompt="" v:val="VT0(0):26"/>
				<v:ud v:nameU="TopRightOffset" v:prompt="" v:val="VT0(0):26"/>
				<v:ud v:nameU="BotLeftOffset" v:prompt="" v:val="VT0(0):26"/>
				<v:ud v:nameU="BotRightOffset" v:prompt="" v:val="VT0(0):26"/>
				<v:ud v:nameU="visVersion" v:prompt="" v:val="VT0(15):26"/>
			</v:userDefs>
			<v:textBlock v:margins="rect(3.99999,3.99999,3.99999,3.99999)" v:tabSpace="42.5196"/>
			<v:textRect cx="52.4405" cy="247.55" width="104.89" height="27.9251"/>
			<path d="M6.56 261.51 L98.33 261.51 A6.555 6.555 -180 0 0 104.88 254.95 L104.88 240.14 A6.555 6.555 -180 0 0 98.33 233.58
						 L6.56 233.58 A6.555 6.555 -180 0 0 0 240.14 L0 254.95 A6.555 6.555 -180 0 0 6.56 261.51 Z" class="st1"/>
			<text x="18.34" y="249.95" class="st5" v:langID="3082"><v:paragraph v:horizAlign="1"/><v:tabList/>h2g:PhysicProperties</text>		</g>
		<g id="shape38-136" v:mID="38" v:groupContext="shape" transform="translate(440.54,-134.054)">
			<title>Rectángulo redondeado.40</title>
			<desc>h2g:OccupantStateProperties</desc>
			<v:userDefs>
				<v:ud v:nameU="CTypeTopLeftSnip" v:prompt="" v:val="VT0(0):5"/>
				<v:ud v:nameU="CTypeTopRightSnip" v:prompt="" v:val="VT0(0):5"/>
				<v:ud v:nameU="CTypeBotLeftSnip" v:prompt="" v:val="VT0(0):5"/>
				<v:ud v:nameU="CTypeBotRightSnip" v:prompt="" v:val="VT0(0):5"/>
				<v:ud v:nameU="CornerLockHoriz" v:prompt="" v:val="VT0(1):5"/>
				<v:ud v:nameU="CornerLockVert" v:prompt="" v:val="VT0(1):5"/>
				<v:ud v:nameU="CornerLockDiag" v:prompt="" v:val="VT0(0):5"/>
				<v:ud v:nameU="TopLeftOffset" v:prompt="" v:val="VT0(0):26"/>
				<v:ud v:nameU="TopRightOffset" v:prompt="" v:val="VT0(0):26"/>
				<v:ud v:nameU="BotLeftOffset" v:prompt="" v:val="VT0(0):26"/>
				<v:ud v:nameU="BotRightOffset" v:prompt="" v:val="VT0(0):26"/>
				<v:ud v:nameU="visVersion" v:prompt="" v:val="VT0(15):26"/>
			</v:userDefs>
			<v:textBlock v:margins="rect(3.99999,3.99999,3.99999,3.99999)" v:tabSpace="42.5196"/>
			<v:textRect cx="52.4405" cy="247.55" width="104.89" height="27.9251"/>
			<path d="M6.56 261.51 L98.33 261.51 A6.555 6.555 -180 0 0 104.88 254.95 L104.88 240.14 A6.555 6.555 -180 0 0 98.33 233.58
						 L6.56 233.58 A6.555 6.555 -180 0 0 0 240.14 L0 254.95 A6.555 6.555 -180 0 0 6.56 261.51 Z" class="st1"/>
			<text x="4.47" y="249.95" class="st5" v:langID="3082"><v:paragraph v:horizAlign="1"/><v:tabList/>h2g:OccupantStateProperties</text>		</g>
		<g id="shape39-139" v:mID="39" v:groupContext="shape" v:layerMember="0" transform="translate(412.902,-144.339)">
			<title>Conector dinámico.41</title>
			<path d="M0 261.51 L27.64 192.71 L0 261.51 Z" class="st11"/>
			<path d="M0 261.51 L27.64 192.71" class="st12"/>
		</g>
		<g id="shape40-142" v:mID="40" v:groupContext="shape" v:layerMember="0" transform="translate(412.902,-144.339)">
			<title>Conector dinámico.42</title>
			<path d="M0 261.51 L27.64 225.27 L0 261.51 Z" class="st11"/>
			<path d="M0 261.51 L27.64 225.27" class="st12"/>
		</g>
		<g id="shape41-145" v:mID="41" v:groupContext="shape" v:layerMember="0" transform="translate(412.902,-144.341)">
			<title>Conector dinámico.43</title>
			<path d="M0 261.51 L27.64 257.83 L0 261.51 Z" class="st11"/>
			<path d="M0 261.51 L27.64 257.83" class="st12"/>
		</g>
		<g id="shape42-148" v:mID="42" v:groupContext="shape" transform="translate(5.42319,-250.131)">
			<title>Rectángulo</title>
			<v:userDefs>
				<v:ud v:nameU="visVersion" v:val="VT0(15):26"/>
			</v:userDefs>
			<rect x="0" y="250.883" width="14.1732" height="10.6299" class="st1"/>
		</g>
		<g id="shape43-150" v:mID="43" v:groupContext="shape" transform="translate(8.25779,-250.551)">
			<title>Hoja.50</title>
			<desc>HIT2GAP Ontology</desc>
			<v:userDefs/>
			<v:textBlock v:margins="rect(3.99999,3.99999,3.99999,3.99999)" v:tabSpace="42.5196"/>
			<v:textRect cx="52.4405" cy="256.551" width="104.89" height="9.92125"/>
			<rect x="0" y="251.591" width="104.882" height="9.92125" class="st13"/>
			<text x="14.68" y="259.55" class="st14" v:langID="3082"><v:paragraph v:horizAlign="1"/><v:tabList/>HIT2GAP Ontology</text>		</g>
		<g id="shape44-153" v:mID="44" v:groupContext="shape" transform="translate(8.25779,-236.167)">
			<title>Hoja.53</title>
			<desc>Time Ontology</desc>
			<v:userDefs/>
			<v:textBlock v:margins="rect(3.99999,3.99999,3.99999,3.99999)" v:tabSpace="42.5196"/>
			<v:textRect cx="52.4405" cy="256.551" width="104.89" height="9.92125"/>
			<rect x="0" y="251.591" width="104.882" height="9.92125" class="st13"/>
			<text x="22.59" y="259.55" class="st14" v:langID="3082"><v:paragraph v:horizAlign="1"/><v:tabList/>Time Ontology</text>		</g>
		<g id="shape45-156" v:mID="45" v:groupContext="shape" transform="translate(5.42319,-221.784)">
			<title>Rectángulo.55</title>
			<v:userDefs>
				<v:ud v:nameU="visVersion" v:val="VT0(15):26"/>
			</v:userDefs>
			<rect x="0" y="250.883" width="14.1732" height="10.6299" class="st3"/>
		</g>
		<g id="shape46-158" v:mID="46" v:groupContext="shape" transform="translate(8.25779,-221.783)">
			<title>Hoja.56</title>
			<desc>IfcOWL Ontology</desc>
			<v:userDefs/>
			<v:textBlock v:margins="rect(3.99999,3.99999,3.99999,3.99999)" v:tabSpace="42.5196"/>
			<v:textRect cx="52.4405" cy="256.551" width="104.89" height="9.92125"/>
			<rect x="0" y="251.591" width="104.882" height="9.92125" class="st13"/>
			<text x="17.9" y="259.55" class="st14" v:langID="3082"><v:paragraph v:horizAlign="1"/><v:tabList/>IfcOWL Ontology</text>		</g>
		<g id="shape47-161" v:mID="47" v:groupContext="shape" transform="translate(107.47,-250.131)">
			<title>Rectángulo.57</title>
			<v:userDefs>
				<v:ud v:nameU="visVersion" v:val="VT0(15):26"/>
			</v:userDefs>
			<rect x="0" y="250.883" width="14.1732" height="10.6299" class="st15"/>
		</g>
		<g id="shape48-163" v:mID="48" v:groupContext="shape" transform="translate(103.218,-250.13)">
			<title>Hoja.58</title>
			<desc>SSN Ontology</desc>
			<v:userDefs/>
			<v:textBlock v:margins="rect(3.99999,3.99999,3.99999,3.99999)" v:tabSpace="42.5196"/>
			<v:textRect cx="52.4405" cy="256.551" width="104.89" height="9.92125"/>
			<rect x="0" y="251.591" width="104.882" height="9.92125" class="st13"/>
			<text x="24.84" y="259.55" class="st14" v:langID="3082"><v:paragraph v:horizAlign="1"/><v:tabList/>SSN Ontology</text>		</g>
		<g id="shape49-166" v:mID="49" v:groupContext="shape" transform="translate(107.47,-235.072)">
			<title>Rectángulo.59</title>
			<v:userDefs>
				<v:ud v:nameU="visVersion" v:val="VT0(15):26"/>
			</v:userDefs>
			<rect x="0" y="250.883" width="14.1732" height="10.6299" class="st9"/>
		</g>
		<g id="shape50-168" v:mID="50" v:groupContext="shape" transform="translate(103.218,-235.071)">
			<title>Hoja.60</title>
			<desc>QUDT Ontology</desc>
			<v:userDefs/>
			<v:textBlock v:margins="rect(3.99999,3.99999,3.99999,3.99999)" v:tabSpace="42.5196"/>
			<v:textRect cx="52.4405" cy="256.551" width="104.89" height="9.92125"/>
			<rect x="0" y="251.591" width="104.882" height="9.92125" class="st13"/>
			<text x="20.58" y="259.55" class="st14" v:langID="3082"><v:paragraph v:horizAlign="1"/><v:tabList/>QUDT Ontology</text>		</g>
		<g id="shape51-171" v:mID="51" v:groupContext="shape" transform="translate(107.47,-220.013)">
			<title>Rectángulo.61</title>
			<v:userDefs>
				<v:ud v:nameU="visVersion" v:val="VT0(15):26"/>
			</v:userDefs>
			<rect x="0" y="250.883" width="14.1732" height="10.6299" class="st16"/>
		</g>
		<g id="shape52-173" v:mID="52" v:groupContext="shape" transform="translate(103.218,-220.012)">
			<title>Hoja.62</title>
			<desc>GEO Ontology</desc>
			<v:userDefs/>
			<v:textBlock v:margins="rect(3.99999,3.99999,3.99999,3.99999)" v:tabSpace="42.5196"/>
			<v:textRect cx="52.4405" cy="256.551" width="104.89" height="9.92125"/>
			<rect x="0" y="251.591" width="104.882" height="9.92125" class="st13"/>
			<text x="23.75" y="259.55" class="st14" v:langID="3082"><v:paragraph v:horizAlign="1"/><v:tabList/>GEO Ontology</text>		</g>
		<g id="shape53-176" v:mID="53" v:groupContext="shape" transform="translate(5.42319,-235.957)">
			<title>Rectángulo.63</title>
			<v:userDefs>
				<v:ud v:nameU="visVersion" v:val="VT0(15):26"/>
			</v:userDefs>
			<rect x="0" y="250.883" width="14.1732" height="10.6299" class="st17"/>
		</g>
		<g id="shape54-178" v:mID="54" v:groupContext="shape" transform="translate(192.51,-249.068)">
			<title>Rectángulo.64</title>
			<v:userDefs>
				<v:ud v:nameU="visVersion" v:val="VT0(15):26"/>
			</v:userDefs>
			<rect x="0" y="250.883" width="14.1732" height="10.6299" class="st7"/>
		</g>
		<g id="shape55-180" v:mID="55" v:groupContext="shape" transform="translate(193.927,-249.067)">
			<title>Hoja.65</title>
			<desc>OntoMG Ontology</desc>
			<v:userDefs/>
			<v:textBlock v:margins="rect(3.99999,3.99999,3.99999,3.99999)" v:tabSpace="42.5196"/>
			<v:textRect cx="52.4405" cy="256.551" width="104.89" height="9.92125"/>
			<rect x="0" y="251.591" width="104.882" height="9.92125" class="st13"/>
			<text x="14.98" y="259.55" class="st14" v:langID="3082"><v:paragraph v:horizAlign="1"/><v:tabList/>OntoMG Ontology</text>		</g>
		<g id="shape56-183" v:mID="56" v:groupContext="shape" v:layerMember="0" transform="translate(169.124,-35.3389)">
			<title>Conector dinámico.66</title>
			<path d="M0 261.51 L50.4 249.5 A2.3622 2.3622 0 1 1 54.99 248.4 L149.53 225.87 L0 261.51 Z" class="st11"/>
			<path d="M0 261.51 L50.4 249.5 A2.3622 2.3622 0 1 1 54.99 248.4 L149.53 225.87" class="st12"/>
		</g>
		<g id="shape57-186" v:mID="57" v:groupContext="shape" v:layerMember="0" transform="translate(209.518,-17.923)">
			<title>Conector dinámico.67</title>
			<path d="M0 261.51 L29.62 261.51 L0 261.51 Z" class="st11"/>
			<path d="M0 261.51 L29.62 261.51" class="st12"/>
		</g>
	</g>
</svg>
